<svg width="12" height="12" viewBox="0 0 12 12" fill="none" xmlns="http://www.w3.org/2000/svg">
<path d="M3.83333 7.16667L0.5 3.83333M0.5 3.83333L3.83333 0.5M0.5 3.83333H7.5C7.98151 3.83333 8.45831 3.92817 8.90317 4.11244C9.34803 4.29671 9.75224 4.56679 10.0927 4.90727C10.4332 5.24776 10.7033 5.65197 10.8876 6.09683C11.0718 6.54169 11.1667 7.01849 11.1667 7.5C11.1667 7.98151 11.0718 8.45831 10.8876 8.90317C10.7033 9.34803 10.4332 9.75224 10.0927 10.0927C9.75224 10.4332 9.34803 10.7033 8.90317 10.8876C8.45831 11.0718 7.98151 11.1667 7.5 11.1667H5.16667" stroke="#020617" stroke-linecap="round" stroke-linejoin="round"/>
</svg>
